<?xml version="1.0" encoding="UTF-8"?>
<svg xmlns="http://www.w3.org/2000/svg" xmlns:xlink="http://www.w3.org/1999/xlink" width="48px" height="60px" viewBox="0 0 48 60" version="1.1">
    <!-- Generator: Sketch 51.3 (57544) - http://www.bohemiancoding.com/sketch -->
    <title>022 - Male Avatar</title>
    <desc>Created with Sketch.</desc>
    <defs/>
    <g id="Page-1" stroke="none" stroke-width="1" fill="none" fill-rule="evenodd" stroke-linecap="round" stroke-linejoin="round">
        <g id="022---Male-Avatar" transform="translate(1.000000, 1.000000)" stroke="#d7d7d7" stroke-width="2">
            <path d="M16,7 C15.9699992,7.01061889 15.9426915,7.02768625 15.92,7.05" id="Shape"/>
            <path d="M13.1,13.49 C13.0293813,14.1977583 12.996002,14.9087385 13,15.62 C13,16 13,16.37 13.01,16.73 C12.976401,19.15167 13.2315335,21.5687147 13.77,23.93 C14.032628,24.9863464 14.3976906,26.0145502 14.86,27 C16.28,30.02 18.75,33 23,33 C27.23,33 29.7,30 31.12,27 C31.5855317,26.0148327 31.9539398,24.9866392 32.22,23.93 C32.7631849,21.5693463 33.0216923,19.1521336 32.99,16.73 C33,16.37 33,16 33,15.62 C33.003998,14.9087385 32.9706187,14.1977583 32.9,13.49 C32.9006782,13.4727762 32.8972506,13.455638 32.89,13.44" id="Shape"/>
            <path d="M30.08,7.05 C30.0573085,7.02768625 30.0300008,7.01061889 30,7" id="Shape"/>
            <path d="M31.17,8.26 L31.16,8.25" id="Shape"/>
            <path d="M14.84,8.25 L14.83,8.26" id="Shape"/>
            <path d="M13.01,16.73 C12.32,16.18 10,14.61 10,18.93 C10,23.04 12.62,23.82 13.62,23.97" id="Shape"/>
            <path d="M32.99,16.73 C33.68,16.18 36,14.61 36,18.93 C36,23.04 33.38,23.82 32.38,23.97" id="Shape"/>
            <path d="M8.15,55.91 C3.40416517,55.2768441 -0.10502364,51.1739725 0.0052788126,46.3873591 C0.115581266,41.6007456 3.81003746,37.6638744 8.58,37.25 L16.62,36.55" id="Shape"/>
            <path d="M29.38,36.55 L37.42,37.25 C42.1909696,37.662564 45.8868442,41.5997993 45.9971671,46.3873027 C46.1074901,51.1748061 42.5969012,55.2781067 37.85,55.91" id="Shape"/>
            <path d="M38,49 L38,55 C38,56.6568542 36.6568542,58 35,58 L11,58 C9.34314575,58 8,56.6568542 8,55 L8,49" id="Shape"/>
            <path d="M16,38 C16.2354589,37.5294916 16.442497,37.0452896 16.62,36.55 C17.2556925,34.7980661 17.6721894,32.9742126 17.86,31.12" id="Shape"/>
            <path d="M28.13,31.1 C28.3274117,32.9600857 28.7470717,34.7898034 29.38,36.55 C29.557503,37.0452896 29.7645411,37.5294916 30,38" id="Shape"/>
            <path d="M35,16 L35.7344,4.25 C35.8034176,3.14787755 35.413741,2.0662544 34.6576892,1.26137987 C33.9016374,0.456505341 32.8464814,-5.56125349e-06 31.7422,0 L14.2578,0 C13.1535186,-5.56125349e-06 12.0983626,0.456505341 11.3423108,1.26137987 C10.586259,2.0662544 10.1965824,3.14787755 10.2656,4.25 L11,16" id="Shape"/>
            <path d="M32.9000842,13.49 C32.9006782,13.4727762 32.8972506,13.455638 32.89,13.44 C32.5712944,11.6389599 31.9918751,9.89396455 31.17,8.26 L31.16,8.25 C30.9054405,7.76637852 30.5342278,7.35391994 30.08,7.05 C30.0573085,7.02768625 30.0300008,7.01061889 30,7 C28,6 26,8 23,8 C20,8 18,6 16,7 C15.9699992,7.01061889 15.9426915,7.02768625 15.92,7.05 C15.4657722,7.35391994 15.0945595,7.76637852 14.84,8.25 L14.83,8.26 C14.003871,9.91067305 13.4211564,11.6722901 13.1,13.49" id="Shape"/>
            <path d="M34.68,37.01 C33.82,39.0659 30.92,44 23,44 C15.08,44 12.18,39.0659 11.32,37.01" id="Shape"/>
        </g>
    </g>
</svg>
